<?xml version="1.0" standalone="no"?>
<!DOCTYPE svg PUBLIC "-//W3C//DTD SVG 20010904//EN"
 "http://www.w3.org/TR/2001/REC-SVG-20010904/DTD/svg10.dtd">
<svg version="1.0" xmlns="http://www.w3.org/2000/svg"
 width="100.000000pt" height="100.000000pt" viewBox="0 0 100.000000 100.000000"
 preserveAspectRatio="xMidYMid meet">
<metadata>
Created by potrace 1.14, written by Peter Selinger 2001-2017
</metadata>
<g transform="translate(0.000000,100.000000) scale(0.100000,-0.100000)"
fill="#000000" stroke="none">
<path d="M806 981 c-16 -17 -15 -20 14 -51 l31 -33 -45 -46 -46 -45 -68 72
c-38 40 -75 72 -83 72 -16 0 -79 -60 -79 -76 0 -13 333 -344 346 -344 14 0 74
63 74 78 0 7 -32 45 -71 83 l-72 71 45 45 45 45 33 -32 33 -32 21 21 21 21
-85 85 c-47 47 -87 85 -91 85 -3 0 -13 -8 -23 -19z"/>
<path d="M453 719 l-61 -62 59 -57 c55 -54 57 -58 43 -78 -8 -12 -19 -22 -23
-22 -5 0 -34 26 -64 57 l-56 58 -46 -45 -45 -44 60 -61 c59 -59 60 -62 42 -78
-10 -9 -23 -17 -27 -17 -5 0 -33 25 -63 56 l-53 57 -30 -29 c-64 -61 -72 -85
-64 -188 l6 -92 -68 -67 -68 -66 23 -23 22 -23 71 73 c39 39 75 70 79 67 4 -3
41 -7 83 -11 58 -5 82 -2 108 10 19 9 117 99 219 201 l185 185 -130 130 c-71
71 -132 130 -135 130 -3 0 -33 -28 -67 -61z"/>
</g>
</svg>
